<svg viewBox="0 0 32 32" fill="none" xmlns="http://www.w3.org/2000/svg" role="img" aria-label="Arleco">
  <title>Arleco</title>
  <ellipse cx="16" cy="24.2" rx="7.2" ry="2.6" fill="#C9A84C" opacity="0.16"/>
  <path d="M8.2 17.4L8.2 25.8L11.8 25.2Q10.4 21.2 10.4 17.4Z" fill="#8B1530"/>
  <path d="M23.8 17.4L23.8 25.8L20.2 25.2Q21.6 21.2 21.6 17.4Z" fill="#8B1530"/>
  <path d="M7.2 26.2V16.4Q16 6.8 24.8 16.4V26.2" fill="#1A0A0E"/>
  <path d="M16 23.8V18.2" stroke="#C9A84C" stroke-width="1.35" stroke-linecap="round"/>
  <path d="M16 18.6L11.4 13.2" stroke="#D4AF37" stroke-width="1.25" stroke-linecap="round"/>
  <path d="M16 18.6L20.6 13.2" stroke="#D4AF37" stroke-width="1.25" stroke-linecap="round"/>
  <path d="M16 17.4L17.15 18.55L16 19.7L14.85 18.55Z" fill="#D4AF37"/>
  <path d="M4.8 26.6V15.2Q16 4.6 27.2 15.2V26.6" stroke="#7C1128" stroke-width="2.15" stroke-linecap="round"/>
  <path d="M5.4 26V15.8Q16 6.2 26.6 15.8V26" stroke="#C9A84C" stroke-width="0.55" stroke-linecap="round" opacity="0.32"/>
  <circle cx="16" cy="9.2" r="1" fill="#F0D78C"/>
</svg>
